<svg xmlns="http://www.w3.org/2000/svg" width="16" height="16" viewBox="0 0 16 16">
  <path id="iconmonstr-twitter-1" d="M16,4.142a5.629,5.629,0,0,1-1.885.636,4.008,4.008,0,0,0,1.443-2.235,5.892,5.892,0,0,1-2.085.98,3.03,3.03,0,0,0-2.4-1.276c-2.119,0-3.677,2.433-3.2,4.959a8.886,8.886,0,0,1-6.765-4.22A4.639,4.639,0,0,0,2.129,8.38,2.82,2.82,0,0,1,.643,7.875a3.945,3.945,0,0,0,2.633,4.011,2.7,2.7,0,0,1-1.483.069,3.454,3.454,0,0,0,3.067,2.8A5.751,5.751,0,0,1,0,16.433a8.084,8.084,0,0,0,5.032,1.815c6.095,0,9.538-6.334,9.33-12.015A7.735,7.735,0,0,0,16,4.142Z" transform="translate(0 -2.248)" fill="#fff"/>
</svg>
